Coordinates
version=1
nRows=19
nColumns=36
inDegrees=yes

Units are S.I. units (second, meters, Newtons, ...)
If the header above contains a line with 'inDegrees', this indicates whether rotational values are in degrees (yes) or radians (no).

endheader
time	pelvis_tilt	pelvis_list	pelvis_rotation	pelvis_tx	pelvis_ty	pelvis_tz	hip_flexion_r	hip_adduction_r	hip_rotation_r	knee_angle_r	knee_angle_r_beta	ankle_angle_r	subtalar_angle_r	mtp_angle_r	hip_flexion_l	hip_adduction_l	hip_rotation_l	knee_angle_l	knee_angle_l_beta	ankle_angle_l	subtalar_angle_l	mtp_angle_l	lumbar_extension	lumbar_bending	lumbar_rotation	arm_flex_r	arm_add_r	arm_rot_r	elbow_flex_r	pro_sup_r	arm_flex_l	arm_add_l	arm_rot_l	elbow_flex_l	pro_sup_l
      4.01666670	     -4.18947043	     -0.06075653	      1.20088358	      0.55035620	      0.91836770	     -0.15945286	      1.42513376	     -4.36120103	     -1.57706373	      2.52267011	      0.04402890	      0.52899858	    -17.82982731	     -7.49999987	      1.94854214	     -3.43530367	     -2.44240174	      3.56138052	      0.06215782	      4.54213030	     -6.35389808	     -7.49999987	     -1.65691629	      0.74589416	     -0.99828016	      3.72743661	     -4.41495239	      7.75016309	     34.53036351	     69.61344373	      6.98539894	     -8.74913592	     19.24861270	     35.39851044	     76.83779774
      4.02083330	     -4.24315810	     -0.08781689	      1.19233243	      0.54812965	      0.92411278	     -0.15711423	      1.53574147	     -4.24590371	     -1.55699954	      2.55542740	      0.04460062	      0.56202824	    -17.79770151	     -7.49999987	      2.07282650	     -3.52040561	     -2.42531165	      3.60471514	      0.06291415	      4.50256907	     -6.34228662	     -7.49999987	     -1.67206826	      0.65339916	     -0.95295060	      3.95472404	     -4.26637309	      7.78595010	     34.64173056	     69.62576182	      7.18465632	     -8.73931234	     19.22900687	     35.45151324	     76.84445561
      4.02500000	     -4.23192068	     -0.08526962	      1.21024142	      0.54914392	      0.92063119	     -0.15897140	      1.53366681	     -4.22514171	     -1.53074929	      2.53658534	      0.04427177	      0.47606965	    -17.75392302	     -7.49999987	      2.17300114	     -3.55317066	     -2.24597991	      3.73525300	      0.06519246	      4.17613593	     -6.69947066	     -7.49999987	     -1.86063513	      0.59880525	     -0.91921961	      4.08846061	     -4.27661348	      8.23132698	     35.09706865	     69.97412736	      7.55020950	     -8.65738922	     19.12990500	     35.39226969	     77.24783604
      4.02916670	     -4.29128935	     -0.10121395	      1.15501472	      0.54867388	      0.91972286	     -0.15696406	      1.64378088	     -4.15336501	     -1.41993923	      2.55464794	      0.04458702	      0.49602342	    -17.73809022	     -7.49999987	      2.27544786	     -3.60810310	     -2.24355158	      3.78395123	      0.06604241	      4.09417821	     -6.82997893	     -7.49999987	     -1.90342167	      0.53273206	     -0.91346632	      4.29132764	     -4.13885222	      8.05818327	     35.28854942	     72.00382207	      7.64736180	     -8.55391467	     18.21414295	     35.51512495	     80.61283672
      4.03333330	     -4.32726826	     -0.10245723	      1.10009358	      0.54894699	      0.92575594	     -0.15819046	      1.74019920	     -4.13964392	     -1.45188668	      2.62704079	      0.04585051	      0.50058065	    -17.70142835	     -7.49999987	      2.35056173	     -3.63086765	     -2.22600700	      3.84821651	      0.06716405	      4.05575170	     -6.79555111	     -7.49999987	     -1.91263634	      0.47533524	     -0.88812731	      4.46561774	     -4.04520112	      8.07121138	     35.38176057	     71.99982957	      7.74940041	     -8.48576823	     18.21107128	     35.56192438	     80.59903509
      4.03750000	     -4.23091970	     -0.06311132	      1.05276323	      0.54928579	      0.92357191	     -0.15942277	      1.59323316	     -4.18604329	     -1.23342843	      2.51812416	      0.04394956	      0.05946231	    -18.11031775	     -7.49999987	      2.20431144	     -3.57419632	     -2.18913865	      3.75007866	      0.06545122	      3.81532567	     -7.00024305	     -7.49999987	     -2.21734640	      0.42101904	     -0.86982962	      4.54076693	     -4.00998383	      8.04794364	     36.04358117	     71.73969116	      7.78824365	     -8.46575386	     18.10663541	     36.11923890	     80.32686874
      4.04166670	     -4.11685499	     -0.05965562	      1.03956680	      0.55087693	      0.92180972	     -0.15879279	      1.42943608	     -4.20372445	     -1.51325299	      2.47323172	      0.04316604	      0.18153366	    -17.64484113	     -7.49999987	      2.07148874	     -3.57182765	     -2.10058276	      3.79153827	      0.06617483	      3.66681044	     -7.12596718	     -7.49999987	     -2.29525642	      0.39487361	     -0.87991090	      4.69997117	     -4.03056438	      8.44876620	     36.14592949	     70.48464330	      8.10305477	     -8.17367516	     18.12776354	     35.53457491	     78.06643749
      4.04583330	     -4.11554604	     -0.04609181	      0.97706126	      0.55187031	      0.92592283	     -0.15888937	      1.39182196	     -4.23689133	     -1.59383677	      2.46357705	      0.04299753	      0.07693864	    -17.59894868	     -7.49999987	      2.03609523	     -3.55663281	     -2.12287179	      3.80954013	      0.06648902	      3.57324769	     -7.07998905	     -7.49999987	     -2.28008226	      0.36206803	     -0.85617715	      4.80205004	     -3.97460840	      8.45083716	     36.20070654	     70.50827755	      8.12903575	     -8.07132518	     18.11999105	     35.53136374	     78.09857367
      4.05000000	     -3.97027569	     -0.03523920	      0.94828096	      0.55015699	      0.92098670	     -0.15746404	      1.19999628	     -4.24922194	     -1.67855271	      2.37685353	      0.04148392	      0.01563564	    -17.60657015	     -7.49999987	      1.86178615	     -3.54985971	     -2.13781814	      3.85686346	      0.06731497	      3.54441621	     -7.17728573	     -7.49999987	     -2.48174866	      0.31720581	     -0.81006823	      4.84967142	     -3.98187404	      8.33157357	     36.60050571	     70.98025776	      8.33985077	     -7.90336635	     17.72634260	     35.55891677	     78.80219331
      4.05416670	     -3.96627701	     -0.02050622	      0.88957649	      0.55080713	      0.92653169	     -0.15660620	      1.17791724	     -4.22795905	     -1.76804080	      2.31089274	      0.04033269	     -0.08247733	    -17.50437668	     -7.49999987	      1.81207177	     -3.56786531	     -2.10664441	      3.84402837	      0.06709095	      3.41042660	     -7.07488130	     -7.49999987	     -2.45119346	      0.23887911	     -0.79128395	      4.94467780	     -3.87357077	      8.30951937	     36.66292889	     71.02053250	      8.40795161	     -7.85072804	     17.67116748	     35.52553314	     78.86630455
      4.05833330	     -3.80633943	     -0.02157051	      0.85724750	      0.54986076	      0.92795653	     -0.15484386	      0.98260520	     -4.17683247	     -1.78547453	      2.20199587	      0.03843208	     -0.13754006	    -17.47069632	     -7.49999987	      1.58939752	     -3.60655845	     -2.03624876	      3.79757347	      0.06628016	      3.34669967	     -7.16491088	     -7.49999987	     -2.66142821	      0.18293027	     -0.77754406	      5.10974516	     -3.76782528	      8.43680837	     36.80213447	     69.98548165	      8.57624050	     -7.78112592	     17.76111880	     35.47956779	     77.20760804
      4.06250000	     -3.62225999	     -0.01476238	      0.82176598	      0.55106028	      0.92597755	     -0.15639313	      0.76603355	     -4.16129576	     -1.90013229	      2.14830548	      0.03749500	     -0.20789401	    -17.34678672	     -7.49999987	      1.35868293	     -3.63274833	     -2.03967313	      3.78075704	      0.06598666	      3.31949457	     -6.98981867	     -7.49999987	     -2.90299413	      0.16977772	     -0.75931972	      5.19998359	     -3.74185594	      8.61803081	     37.04052073	     68.76759867	      8.74702262	     -7.71121547	     17.91575824	     35.57154418	     75.23291032
      4.06666670	     -3.57246941	     -0.03796532	      0.67828333	      0.54990075	      0.92578703	     -0.15541090	      0.77379187	     -4.12349673	     -2.14387541	      2.17641825	      0.03798566	      0.13639827	    -16.55252848	     -7.49999987	      1.22270884	     -3.68796727	     -2.30751080	      3.65071411	      0.06371698	      3.37055163	     -6.59402883	     -7.49999987	     -2.94920291	      0.16703555	     -0.75821924	      5.33873990	     -3.60311569	      8.50552547	     37.11161919	     67.81643919	      8.78100525	     -7.57684467	     17.70760615	     35.59899009	     73.72152115
      4.07083330	     -3.46243971	     -0.07525902	      0.66300098	      0.54994026	      0.92506990	     -0.15368704	      0.68267195	     -4.02410192	     -1.78819262	      2.12715435	      0.03712585	     -0.47872075	    -17.67685569	     -7.49999987	      1.13888823	     -3.76087233	     -1.96352083	      3.69304680	      0.06445583	      3.22287501	     -7.14007411	     -7.49999987	     -3.12176410	      0.13367475	     -0.65013128	      5.34683446	     -3.70761296	      9.00156590	     37.49305038	     68.18916779	      9.09070952	     -7.57300279	     18.16057503	     35.58135134	     74.30925474
      4.07500000	     -3.35655788	     -0.10270608	      0.59517395	      0.54947774	      0.92782032	     -0.15303691	      0.60223461	     -3.94555333	     -1.85034381	      2.12630106	      0.03711095	     -0.50700317	    -17.60604212	     -7.49999987	      0.99730972	     -3.84075185	     -1.88964046	      3.64240635	      0.06357198	      3.23079132	     -7.10916368	     -7.49999987	     -3.31668211	      0.11473764	     -0.64147519	      5.47617455	     -3.63505185	      9.21509003	     37.67210374	     67.38753799	      9.23156218	     -7.55383648	     18.19430218	     35.62453764	     73.00470214
      4.07916670	     -3.22851802	     -0.13578775	      0.49786712	      0.54894619	      0.92558476	     -0.15245116	      0.52902406	     -3.87756559	     -2.12833726	      2.16119798	      0.03772002	     -0.08611389	    -16.76760771	     -7.49999987	      0.88630261	     -3.92349154	     -2.18582092	      3.72259854	      0.06497160	      3.47281705	     -6.59245811	     -7.49999987	     -3.48148207	      0.10005064	     -0.55622783	      5.60322848	     -3.46561306	      8.91738120	     37.64318360	     66.33944643	      9.32008718	     -7.32739703	     17.68111028	     35.71425622	     71.34755717
      4.08333330	     -3.21226090	     -0.13963198	      0.42538966	      0.54895817	      0.92837047	     -0.15350828	      0.57764800	     -3.83724933	     -1.88742396	      2.19964702	      0.03839108	     -0.40089134	    -17.26039842	     -7.49999987	      0.85303508	     -3.94909737	     -2.09324518	      3.71052738	      0.06476092	      3.22230800	     -6.87028619	     -7.49999987	     -3.56839908	      0.06849141	     -0.46072711	      5.59492472	     -3.30664897	      7.94190692	     37.91604189	     72.55565021	      9.42416667	     -7.09062242	     16.13928111	     35.56323133	     81.84155388
      4.08750000	     -3.06687635	     -0.14761722	      0.38038729	      0.54751301	      0.92999038	     -0.15208717	      0.46368988	     -3.79835076	     -2.00000278	      2.17248786	      0.03791707	     -0.28740608	    -16.98097483	     -7.49999987	      0.69607529	     -3.98208224	     -2.02713336	      3.69825914	      0.06454680	      3.17593544	     -6.86216510	     -7.49999987	     -3.81951544	      0.05657944	     -0.43333116	      5.80662708	     -3.29512500	      8.42179735	     38.00945034	     70.72891358	      9.61356535	     -7.03633337	     16.39191236	     35.67808469	     78.90766602
      4.09166670	     -2.95176176	     -0.13855401	      0.29208135	      0.54774564	      0.93113231	     -0.15257537	      0.36637119	     -3.79680618	     -2.01508946	      2.14807157	      0.03749092	     -0.24201699	    -16.69102512	     -7.49999987	      0.54076813	     -3.98213256	     -2.10098658	      3.64119866	      0.06355091	      3.07351364	     -6.64941942	     -7.49999987	     -4.00460054	      0.06542966	     -0.44204004	      5.98846885	     -3.13055195	      8.41661137	     38.12657820	     69.71516549	      9.66646840	     -6.96284998	     16.33175389	     35.81474687	     77.27607663
